# xmcd
#
# Track frame offsets:
#  150
#  12523
#  30340
#  51605
#  62853
#  77490
#  89955
#  101415
#  112410
#  129708
#  146678
#  167208
#  179778
#  195160
#  206608
#  223460
#  237448
#  251728
#  267123
#
# Disc length: 3834 seconds
#
# Revision: 2
# Processed by: cddbd v1.5.1PL2 Copyright (c) Steve Scherf et al.
# Submitted via: Collectorz.com_Music_Collector 6.11
#
DISCID=2e0ef813
DTITLE=Various Artist - The Bluesville Years Vol.1 - Big Blues Honks And Wails
DYEAR=1995
DGENRE=Blues
TTITLE0=Leroy Carr - Baby How Long
TTITLE1=Sunnyland Slim - The Devil Is A Busy Man
TTITLE2=Sonny Boy Williamson - Decoration Day
TTITLE3=Sunnyland Slim - It's You Baby
TTITLE4=Roosevelt Sykes - Mislead Mother
TTITLE5=Roosevelt Sykes - Satellite Baby
TTITLE6=Roosevelt Sykes - Pocketful Of Money
TTITLE7=Roosevelt Sykes - Jailbait
TTITLE8=Vinson - Blackman - Kidney Stew Blues
TTITLE9=Mildred Anderson - Hello Little Boy
TTITLE10=Chuck Willis - Don't Deceive Me
TTITLE11=Jimmy Witherspoon - Money's Gettin' Cheaper
TTITLE12=Robert Brown - I've Been Treated Wrong
TTITLE13=Jimmy Witherspoon - Cane River
TTITLE14=Larraine Walton - Grab Me A Freight
TTITLE15=Thomas Davis - Bad, Bad Whiskey
TTITLE16=Arthur "Big Boy" Crudup - Mean Old Frisco Blues
TTITLE17=Al Smith - I've Got The Right Kind Of Lovin'
TTITLE18=Al Smith - I've Got A Girl
EXTD=
EXTT0=
EXTT1=
EXTT2=
EXTT3=
EXTT4=
EXTT5=
EXTT6=
EXTT7=
EXTT8=
EXTT9=
EXTT10=
EXTT11=
EXTT12=
EXTT13=
EXTT14=
EXTT15=
EXTT16=
EXTT17=
EXTT18=
PLAYORDER=
